{
	"asset":{
		"generator":"Khronos glTF Blender I/O v3.5.30",
		"version":"2.0"
	},
	"scene":0,
	"scenes":[
		{
			"name":"Scene",
			"nodes":[
				0,
				1,
				2,
				3
			]
		}
	],
	"nodes":[
		{
			"mesh":0,
			"name":"pino_acoplador",
			"translation":[
				-100,
				0,
				0
			]
		},
		{
			"mesh":1,
			"name":"disco_acoplador",
			"translation":[
				50,
				0,
				0
			]
		},
		{
			"mesh":2,
			"name":"disco_acoplador.001",
			"translation":[
				-50,
				0,
				0
			]
		},
		{
			"mesh":3,
			"name":"disco_medio_acoplador"
		}
	],
	"animations":[
		{
			"channels":[
				{
					"sampler":0,
					"target":{
						"node":0,
						"path":"translation"
					}
				},
				{
					"sampler":1,
					"target":{
						"node":1,
						"path":"translation"
					}
				},
				{
					"sampler":2,
					"target":{
						"node":2,
						"path":"translation"
					}
				}
			],
			"name":"Animation",
			"samplers":[
				{
					"input":11,
					"interpolation":"LINEAR",
					"output":12
				},
				{
					"input":13,
					"interpolation":"LINEAR",
					"output":14
				},
				{
					"input":13,
					"interpolation":"LINEAR",
					"output":15
				}
			]
		}
	],
	"materials":[
		{
			"doubleSided":true,
			"name":"Material.001",
			"pbrMetallicRoughness":{
				"baseColorFactor":[
					0.783537745475769,
					0.25415176153182983,
					0.2541521191596985,
					1
				],
				"metallicFactor":0,
				"roughnessFactor":0.5
			}
		},
		{
			"doubleSided":true,
			"name":"Material.002",
			"pbrMetallicRoughness":{
				"baseColorFactor":[
					0.783537745475769,
					0.25415176153182983,
					0.2541521191596985,
					1
				],
				"metallicFactor":0,
				"roughnessFactor":0.5
			}
		}
	],
	"meshes":[
		{
			"name":"pino_acoplador.001",
			"primitives":[
				{
					"attributes":{
						"POSITION":0,
						"NORMAL":1
					},
					"indices":2,
					"material":0
				}
			]
		},
		{
			"name":"disco_acoplador",
			"primitives":[
				{
					"attributes":{
						"POSITION":3,
						"NORMAL":4
					},
					"indices":5,
					"material":0
				}
			]
		},
		{
			"name":"disco_acoplador.001",
			"primitives":[
				{
					"attributes":{
						"POSITION":6,
						"NORMAL":7
					},
					"indices":5,
					"material":1
				}
			]
		},
		{
			"name":"disco_medio_acoplador",
			"primitives":[
				{
					"attributes":{
						"POSITION":8,
						"NORMAL":9
					},
					"indices":10,
					"material":0
				}
			]
		}
	],
	"accessors":[
		{
			"bufferView":0,
			"componentType":5126,
			"count":504,
			"max":[
				10.383689880371094,
				1.4999160766601562,
				15.364501953125
			],
			"min":[
				-10.383316040039062,
				-1.5000839233398438,
				-15.364509582519531
			],
			"type":"VEC3"
		},
		{
			"bufferView":1,
			"componentType":5126,
			"count":504,
			"type":"VEC3"
		},
		{
			"bufferView":2,
			"componentType":5123,
			"count":984,
			"type":"SCALAR"
		},
		{
			"bufferView":3,
			"componentType":5126,
			"count":360,
			"max":[
				1.5000228881835938,
				19.77814483642578,
				19.77972412109375
			],
			"min":[
				-1.4999771118164062,
				-19.777851104736328,
				-19.779273986816406
			],
			"type":"VEC3"
		},
		{
			"bufferView":4,
			"componentType":5126,
			"count":360,
			"type":"VEC3"
		},
		{
			"bufferView":5,
			"componentType":5123,
			"count":744,
			"type":"SCALAR"
		},
		{
			"bufferView":6,
			"componentType":5126,
			"count":360,
			"max":[
				1.5000228881835938,
				19.77814483642578,
				19.77972412109375
			],
			"min":[
				-1.4999771118164062,
				-19.777851104736328,
				-19.779273986816406
			],
			"type":"VEC3"
		},
		{
			"bufferView":7,
			"componentType":5126,
			"count":360,
			"type":"VEC3"
		},
		{
			"bufferView":8,
			"componentType":5126,
			"count":348,
			"max":[
				1.5000381469726562,
				15.327537536621094,
				15.265914916992188
			],
			"min":[
				-1.499969482421875,
				-15.327465057373047,
				-15.266082763671875
			],
			"type":"VEC3"
		},
		{
			"bufferView":9,
			"componentType":5126,
			"count":348,
			"type":"VEC3"
		},
		{
			"bufferView":10,
			"componentType":5123,
			"count":696,
			"type":"SCALAR"
		},
		{
			"bufferView":11,
			"componentType":5126,
			"count":31,
			"max":[
				2.0833333333333335
			],
			"min":[
				0.8333333333333334
			],
			"type":"SCALAR"
		},
		{
			"bufferView":12,
			"componentType":5126,
			"count":31,
			"type":"VEC3"
		},
		{
			"bufferView":13,
			"componentType":5126,
			"count":41,
			"max":[
				1.6666666666666667
			],
			"min":[
				0
			],
			"type":"SCALAR"
		},
		{
			"bufferView":14,
			"componentType":5126,
			"count":41,
			"type":"VEC3"
		},
		{
			"bufferView":15,
			"componentType":5126,
			"count":41,
			"type":"VEC3"
		}
	],
	"bufferViews":[
		{
			"buffer":0,
			"byteLength":6048,
			"byteOffset":0,
			"target":34962
		},
		{
			"buffer":0,
			"byteLength":6048,
			"byteOffset":6048,
			"target":34962
		},
		{
			"buffer":0,
			"byteLength":1968,
			"byteOffset":12096,
			"target":34963
		},
		{
			"buffer":0,
			"byteLength":4320,
			"byteOffset":14064,
			"target":34962
		},
		{
			"buffer":0,
			"byteLength":4320,
			"byteOffset":18384,
			"target":34962
		},
		{
			"buffer":0,
			"byteLength":1488,
			"byteOffset":22704,
			"target":34963
		},
		{
			"buffer":0,
			"byteLength":4320,
			"byteOffset":24192,
			"target":34962
		},
		{
			"buffer":0,
			"byteLength":4320,
			"byteOffset":28512,
			"target":34962
		},
		{
			"buffer":0,
			"byteLength":4176,
			"byteOffset":32832,
			"target":34962
		},
		{
			"buffer":0,
			"byteLength":4176,
			"byteOffset":37008,
			"target":34962
		},
		{
			"buffer":0,
			"byteLength":1392,
			"byteOffset":41184,
			"target":34963
		},
		{
			"buffer":0,
			"byteLength":124,
			"byteOffset":42576
		},
		{
			"buffer":0,
			"byteLength":372,
			"byteOffset":42700
		},
		{
			"buffer":0,
			"byteLength":164,
			"byteOffset":43072
		},
		{
			"buffer":0,
			"byteLength":492,
			"byteOffset":43236
		},
		{
			"buffer":0,
			"byteLength":492,
			"byteOffset":43728
		}
	],
	"buffers":[
		{
			"byteLength":44220,
			"uri":"data:application/octet-stream;base64,"
		}
	]
}
