{
	"asset":{
		"generator":"Khronos glTF Blender I/O v3.5.30",
		"version":"2.0"
	},
	"scene":0,
	"scenes":[
		{
			"name":"Scene",
			"nodes":[
				0,
				1,
				2,
				3,
				4,
				5,
				6,
				7
			]
		}
	],
	"nodes":[
		{
			"mesh":0,
			"name":"engrenagem_acoplador_32",
			"rotation":[
				0,
				0,
				-0.7071068286895752,
				0.7071068286895752
			],
			"translation":[
				-200,
				0,
				0
			]
		},
		{
			"mesh":1,
			"name":"engrenagem_acoplador_28",
			"rotation":[
				0,
				0,
				-0.7071068286895752,
				0.7071068286895752
			],
			"translation":[
				-70,
				0,
				0
			]
		},
		{
			"mesh":2,
			"name":"engrenagem_acoplador_24",
			"rotation":[
				0,
				0,
				-0.7071068286895752,
				0.7071068286895752
			],
			"translation":[
				50,
				0,
				0
			]
		},
		{
			"mesh":3,
			"name":"engrenagem_acoplador_16",
			"rotation":[
				0,
				0,
				-0.7071068286895752,
				0.7071068286895752
			],
			"translation":[
				150,
				0,
				0
			]
		},
		{
			"mesh":4,
			"name":"pino_engrenagem_acomplador",
			"rotation":[
				0,
				0,
				-0.7071068286895752,
				0.7071068286895752
			],
			"translation":[
				150,
				49.22998046875,
				0
			]
		},
		{
			"mesh":5,
			"name":"pino_engrenagem_acomplador.001",
			"rotation":[
				0,
				0,
				-0.7071068286895752,
				0.7071068286895752
			],
			"translation":[
				-200,
				35.08763885498047,
				0
			]
		},
		{
			"mesh":6,
			"name":"pino_engrenagem_acomplador.002",
			"rotation":[
				0,
				0,
				-0.7071068286895752,
				0.7071068286895752
			],
			"translation":[
				-70,
				45.59407424926758,
				0
			]
		},
		{
			"mesh":7,
			"name":"pino_engrenagem_acomplador.003",
			"rotation":[
				0,
				0,
				-0.7071068286895752,
				0.7071068286895752
			],
			"translation":[
				50,
				48.81378936767578,
				0
			]
		}
	],
	"animations":[
		{
			"channels":[
				{
					"sampler":0,
					"target":{
						"node":4,
						"path":"translation"
					}
				},
				{
					"sampler":1,
					"target":{
						"node":5,
						"path":"translation"
					}
				},
				{
					"sampler":2,
					"target":{
						"node":6,
						"path":"translation"
					}
				},
				{
					"sampler":3,
					"target":{
						"node":7,
						"path":"translation"
					}
				}
			],
			"name":"Animation",
			"samplers":[
				{
					"input":21,
					"interpolation":"LINEAR",
					"output":22
				},
				{
					"input":23,
					"interpolation":"LINEAR",
					"output":24
				},
				{
					"input":25,
					"interpolation":"LINEAR",
					"output":26
				},
				{
					"input":27,
					"interpolation":"LINEAR",
					"output":28
				}
			]
		}
	],
	"materials":[
		{
			"doubleSided":true,
			"name":"Material.001",
			"pbrMetallicRoughness":{
				"baseColorFactor":[
					0.7011019587516785,
					0.15292592346668243,
					0.054480329155921936,
					1
				],
				"metallicFactor":0,
				"roughnessFactor":0.5
			}
		}
	],
	"meshes":[
		{
			"name":"engrenagem_acoplador_32",
			"primitives":[
				{
					"attributes":{
						"POSITION":0,
						"NORMAL":1
					},
					"indices":2,
					"material":0
				}
			]
		},
		{
			"name":"engrenagem_acoplador_28",
			"primitives":[
				{
					"attributes":{
						"POSITION":3,
						"NORMAL":4
					},
					"indices":5,
					"material":0
				}
			]
		},
		{
			"name":"engrenagem_acoplador_24",
			"primitives":[
				{
					"attributes":{
						"POSITION":6,
						"NORMAL":7
					},
					"indices":8,
					"material":0
				}
			]
		},
		{
			"name":"engrenagem_acoplador_16",
			"primitives":[
				{
					"attributes":{
						"POSITION":9,
						"NORMAL":10
					},
					"indices":11,
					"material":0
				}
			]
		},
		{
			"name":"pino_engrenagem_acomplador",
			"primitives":[
				{
					"attributes":{
						"POSITION":12,
						"NORMAL":13
					},
					"indices":14,
					"material":0
				}
			]
		},
		{
			"name":"pino_engrenagem_acomplador.001",
			"primitives":[
				{
					"attributes":{
						"POSITION":15,
						"NORMAL":16
					},
					"indices":14,
					"material":0
				}
			]
		},
		{
			"name":"pino_engrenagem_acomplador.002",
			"primitives":[
				{
					"attributes":{
						"POSITION":17,
						"NORMAL":18
					},
					"indices":14,
					"material":0
				}
			]
		},
		{
			"name":"pino_engrenagem_acomplador.003",
			"primitives":[
				{
					"attributes":{
						"POSITION":19,
						"NORMAL":20
					},
					"indices":14,
					"material":0
				}
			]
		}
	],
	"accessors":[
		{
			"bufferView":0,
			"componentType":5126,
			"count":1398,
			"max":[
				1.5,
				53.64330291748047,
				53.843482971191406
			],
			"min":[
				-1.5,
				-54.0536994934082,
				-53.85450744628906
			],
			"type":"VEC3"
		},
		{
			"bufferView":1,
			"componentType":5126,
			"count":1398,
			"type":"VEC3"
		},
		{
			"bufferView":2,
			"componentType":5123,
			"count":2820,
			"type":"SCALAR"
		},
		{
			"bufferView":3,
			"componentType":5126,
			"count":1252,
			"max":[
				1.4999675750732422,
				47.66227722167969,
				47.662567138671875
			],
			"min":[
				-1.5000324249267578,
				-47.661720275878906,
				-47.66242218017578
			],
			"type":"VEC3"
		},
		{
			"bufferView":4,
			"componentType":5126,
			"count":1252,
			"type":"VEC3"
		},
		{
			"bufferView":5,
			"componentType":5123,
			"count":2520,
			"type":"SCALAR"
		},
		{
			"bufferView":6,
			"componentType":5126,
			"count":1206,
			"max":[
				1.4994583129882812,
				34.50844955444336,
				34.643463134765625
			],
			"min":[
				-1.5005416870117188,
				-34.79355239868164,
				-34.65753173828125
			],
			"type":"VEC3"
		},
		{
			"bufferView":7,
			"componentType":5126,
			"count":1206,
			"type":"VEC3"
		},
		{
			"bufferView":8,
			"componentType":5123,
			"count":2436,
			"type":"SCALAR"
		},
		{
			"bufferView":9,
			"componentType":5126,
			"count":1016,
			"max":[
				1.49957275390625,
				28.428325653076172,
				28.34112548828125
			],
			"min":[
				-1.50042724609375,
				-28.17568016052246,
				-28.263870239257812
			],
			"type":"VEC3"
		},
		{
			"bufferView":10,
			"componentType":5126,
			"count":1016,
			"type":"VEC3"
		},
		{
			"bufferView":11,
			"componentType":5123,
			"count":2052,
			"type":"SCALAR"
		},
		{
			"bufferView":12,
			"componentType":5126,
			"count":228,
			"max":[
				8.771682739257812,
				19.622756958007812,
				1.4999847412109375
			],
			"min":[
				-2.54931640625,
				-19.623245239257812,
				-1.5000152587890625
			],
			"type":"VEC3"
		},
		{
			"bufferView":13,
			"componentType":5126,
			"count":228,
			"type":"VEC3"
		},
		{
			"bufferView":14,
			"componentType":5123,
			"count":432,
			"type":"SCALAR"
		},
		{
			"bufferView":15,
			"componentType":5126,
			"count":228,
			"max":[
				8.771682739257812,
				19.622756958007812,
				1.4999847412109375
			],
			"min":[
				-2.54931640625,
				-19.623245239257812,
				-1.5000152587890625
			],
			"type":"VEC3"
		},
		{
			"bufferView":16,
			"componentType":5126,
			"count":228,
			"type":"VEC3"
		},
		{
			"bufferView":17,
			"componentType":5126,
			"count":228,
			"max":[
				8.771682739257812,
				19.622756958007812,
				1.4999847412109375
			],
			"min":[
				-2.54931640625,
				-19.623245239257812,
				-1.5000152587890625
			],
			"type":"VEC3"
		},
		{
			"bufferView":18,
			"componentType":5126,
			"count":228,
			"type":"VEC3"
		},
		{
			"bufferView":19,
			"componentType":5126,
			"count":228,
			"max":[
				8.771682739257812,
				19.622756958007812,
				1.4999847412109375
			],
			"min":[
				-2.54931640625,
				-19.623245239257812,
				-1.5000152587890625
			],
			"type":"VEC3"
		},
		{
			"bufferView":20,
			"componentType":5126,
			"count":228,
			"type":"VEC3"
		},
		{
			"bufferView":21,
			"componentType":5126,
			"count":51,
			"max":[
				4.166666666666667
			],
			"min":[
				2.0833333333333335
			],
			"type":"SCALAR"
		},
		{
			"bufferView":22,
			"componentType":5126,
			"count":51,
			"type":"VEC3"
		},
		{
			"bufferView":23,
			"componentType":5126,
			"count":11,
			"max":[
				2.5
			],
			"min":[
				2.0833333333333335
			],
			"type":"SCALAR"
		},
		{
			"bufferView":24,
			"componentType":5126,
			"count":11,
			"type":"VEC3"
		},
		{
			"bufferView":25,
			"componentType":5126,
			"count":21,
			"max":[
				2.9166666666666665
			],
			"min":[
				2.0833333333333335
			],
			"type":"SCALAR"
		},
		{
			"bufferView":26,
			"componentType":5126,
			"count":21,
			"type":"VEC3"
		},
		{
			"bufferView":27,
			"componentType":5126,
			"count":41,
			"max":[
				3.75
			],
			"min":[
				2.0833333333333335
			],
			"type":"SCALAR"
		},
		{
			"bufferView":28,
			"componentType":5126,
			"count":41,
			"type":"VEC3"
		}
	],
	"bufferViews":[
		{
			"buffer":0,
			"byteLength":16776,
			"byteOffset":0,
			"target":34962
		},
		{
			"buffer":0,
			"byteLength":16776,
			"byteOffset":16776,
			"target":34962
		},
		{
			"buffer":0,
			"byteLength":5640,
			"byteOffset":33552,
			"target":34963
		},
		{
			"buffer":0,
			"byteLength":15024,
			"byteOffset":39192,
			"target":34962
		},
		{
			"buffer":0,
			"byteLength":15024,
			"byteOffset":54216,
			"target":34962
		},
		{
			"buffer":0,
			"byteLength":5040,
			"byteOffset":69240,
			"target":34963
		},
		{
			"buffer":0,
			"byteLength":14472,
			"byteOffset":74280,
			"target":34962
		},
		{
			"buffer":0,
			"byteLength":14472,
			"byteOffset":88752,
			"target":34962
		},
		{
			"buffer":0,
			"byteLength":4872,
			"byteOffset":103224,
			"target":34963
		},
		{
			"buffer":0,
			"byteLength":12192,
			"byteOffset":108096,
			"target":34962
		},
		{
			"buffer":0,
			"byteLength":12192,
			"byteOffset":120288,
			"target":34962
		},
		{
			"buffer":0,
			"byteLength":4104,
			"byteOffset":132480,
			"target":34963
		},
		{
			"buffer":0,
			"byteLength":2736,
			"byteOffset":136584,
			"target":34962
		},
		{
			"buffer":0,
			"byteLength":2736,
			"byteOffset":139320,
			"target":34962
		},
		{
			"buffer":0,
			"byteLength":864,
			"byteOffset":142056,
			"target":34963
		},
		{
			"buffer":0,
			"byteLength":2736,
			"byteOffset":142920,
			"target":34962
		},
		{
			"buffer":0,
			"byteLength":2736,
			"byteOffset":145656,
			"target":34962
		},
		{
			"buffer":0,
			"byteLength":2736,
			"byteOffset":148392,
			"target":34962
		},
		{
			"buffer":0,
			"byteLength":2736,
			"byteOffset":151128,
			"target":34962
		},
		{
			"buffer":0,
			"byteLength":2736,
			"byteOffset":153864,
			"target":34962
		},
		{
			"buffer":0,
			"byteLength":2736,
			"byteOffset":156600,
			"target":34962
		},
		{
			"buffer":0,
			"byteLength":204,
			"byteOffset":159336
		},
		{
			"buffer":0,
			"byteLength":612,
			"byteOffset":159540
		},
		{
			"buffer":0,
			"byteLength":44,
			"byteOffset":160152
		},
		{
			"buffer":0,
			"byteLength":132,
			"byteOffset":160196
		},
		{
			"buffer":0,
			"byteLength":84,
			"byteOffset":160328
		},
		{
			"buffer":0,
			"byteLength":252,
			"byteOffset":160412
		},
		{
			"buffer":0,
			"byteLength":164,
			"byteOffset":160664
		},
		{
			"buffer":0,
			"byteLength":492,
			"byteOffset":160828
		}
	],
	"buffers":[
		{
			"byteLength":161320,
			"uri":"data:application/octet-stream;base64,"
		}
	]
}
